<?xml version="1.0" encoding="UTF-8"?>
<svg version="1.1" xmlns="http://www.w3.org/2000/svg" width="512" height="512">
<path d="M0 0 C0.74523926 0.20367188 1.49047852 0.40734375 2.25830078 0.6171875 C38.11561207 10.58310546 66.91390099 35.29973512 85.421875 67.109375 C92.24530379 79.22859926 97.62146626 92.07367619 99 106 C99.78632813 106.06574219 100.57265625 106.13148437 101.3828125 106.19921875 C106.32707524 107.29379096 110.41628012 109.45559213 114.875 111.8125 C115.80030518 112.30024902 116.72561035 112.78799805 117.67895508 113.29052734 C126.46145206 118.045474 134.31741934 123.64363271 142 130 C142.95390625 130.78246094 143.9078125 131.56492188 144.890625 132.37109375 C151.02880124 137.65256135 156.08565815 143.58108609 161 150 C161.6909375 150.89847656 162.381875 151.79695312 163.09375 152.72265625 C176 169.97235577 176 169.97235577 176 175 C176.66 174.67 177.32 174.34 178 174 C194.79306607 172.35548129 210.60036562 178.06248464 223.8125 188.1875 C234.01720983 197.05462636 241.92419381 208.4679431 243.75 222.0625 C244.08981481 224.22597248 244.08981481 224.22597248 245 226 C247.03615245 227.19294579 248.95474722 227.65970558 251.24609375 228.21875 C261.50987026 231.13045965 270.19662791 237.98064017 278 245 C278.70769531 245.62519531 279.41539062 246.25039062 280.14453125 246.89453125 C296.44795361 262.16894076 306.38957293 284.57458386 307.375 306.734375 C307.70669779 319.67755357 307.40305638 331.74050969 303 344 C302.62617188 345.05703125 302.25234375 346.1140625 301.8671875 347.203125 C294.60966752 365.94771302 282.51105738 380.77086818 266 392 C265.05769531 392.64582031 264.11539062 393.29164063 263.14453125 393.95703125 C257.37231645 397.61144035 251.43842552 400.12121169 245 402.3125 C243.9332605 402.67649902 243.9332605 402.67649902 242.8449707 403.04785156 C229.86040183 407.2031487 217.0604898 407.27154418 203.578125 407.1953125 C201.62229559 407.19157521 199.66646429 407.18873163 197.71063232 407.18673706 C192.60122366 407.17915691 187.49193149 407.15955765 182.38256836 407.1373291 C177.15349909 407.11674863 171.92441073 407.10770943 166.6953125 407.09765625 C156.46349092 407.07630567 146.2317552 407.04223882 136 407 C136.54922119 407.92796387 137.09844238 408.85592773 137.66430664 409.81201172 C138.39242425 411.05937517 139.12018861 412.30694487 139.84765625 413.5546875 C140.20879517 414.16272217 140.56993408 414.77075684 140.9420166 415.3972168 C149.2792396 429.76977121 150.36917581 445.95870024 147 462 C142.22404619 478.44637791 132.65086384 491.54243458 117.9765625 500.4296875 C102.4943177 508.59748594 84.42888556 510.90626732 67.375 506.4375 C51.25051669 500.93439472 38.63705044 490.29753216 30.56640625 475.34375 C22.81960968 459.34443126 21.61321944 442.40167037 26.71875 425.42578125 C29.06925721 419.14104092 32.28992231 413.56511653 36 408 C24.45 407.67 12.9 407.34 1 407 C0.34 410.63 -0.32 414.26 -1 418 C-4.5840043 426.01130373 -9.53605471 432.18109887 -17.6875 435.875 C-26.89424905 439.00182043 -35.31446193 438.97775897 -44.390625 435.32421875 C-52.70616102 431.10420871 -57.76327419 424.32553764 -61.3125 415.875 C-62.04406743 412.815718 -62.04774251 410.13364506 -62 407 C-63.07423218 407.00999275 -63.07423218 407.00999275 -64.17016602 407.02018738 C-70.99342073 407.08085849 -77.81663398 407.12625436 -84.64009094 407.15543652 C-88.14624751 407.17094485 -91.65217712 407.191903 -95.15820312 407.22631836 C-125.31062139 407.51422121 -125.31062139 407.51422121 -138 404 C-138.82161621 403.77546143 -139.64323242 403.55092285 -140.48974609 403.31958008 C-164.21746638 396.09940948 -183.4923132 379.19681111 -195.375 357.6875 C-206.2764282 337.00484049 -209.24582519 309.42290643 -202.44921875 287.01171875 C-197.80346617 273.56561227 -191.40965619 261.68123135 -182 251 C-180.92298828 249.77410156 -180.92298828 249.77410156 -179.82421875 248.5234375 C-169.97134887 238.04012805 -158.02537811 231.60289432 -145 226 C-146.39192452 222.84904998 -148.25820948 220.22902205 -150.32519531 217.48486328 C-172.2296653 188.24873185 -180.42988842 150.6501812 -175.75390625 114.71875 C-170.31707904 78.0144313 -150.20931255 45.41234664 -121.0859375 22.73046875 C-106.73625815 12.35873849 -91.06727617 4.66444045 -74 0 C-73.27925293 -0.20882813 -72.55850586 -0.41765625 -71.81591797 -0.6328125 C-49.45086438 -6.92189542 -22.25023186 -6.44674726 0 0 Z " fill="#E4F9FE" transform="translate(205,4)"/>
<path d="M0 0 C0.74523926 0.20367188 1.49047852 0.40734375 2.25830078 0.6171875 C38.11561207 10.58310546 66.91390099 35.29973512 85.421875 67.109375 C92.24530379 79.22859926 97.62146626 92.07367619 99 106 C98.06994141 105.72736328 98.06994141 105.72736328 97.12109375 105.44921875 C89.1596958 103.18943331 81.13103443 101.51487286 73 100 C72.08919678 99.82654053 71.17839355 99.65308105 70.23999023 99.47436523 C35.48778286 94.38631317 -0.8657118 102.81654301 -29.31933594 123.40185547 C-43.21612434 133.78318552 -54.59108748 145.2677936 -64.3125 159.6875 C-64.72121338 160.29295654 -65.12992676 160.89841309 -65.55102539 161.5222168 C-67.67752316 164.74978827 -69.35193173 167.83185731 -70.83203125 171.40625 C-71.81811523 173.42260742 -71.81811523 173.42260742 -73 175 C-76.3984375 175.89453125 -76.3984375 175.89453125 -80.375 175.8125 C-81.81521379 175.82778296 -83.25536074 175.85137603 -84.6953125 175.8828125 C-85.41750977 175.89344727 -86.13970703 175.90408203 -86.88378906 175.91503906 C-102.04965441 176.52391321 -115.29890605 183.56272347 -126 194 C-133.98303402 203.08986716 -139.66795119 214.10655107 -142 226 C-142.66 226 -143.32 226 -144 226 C-168.45986766 196.89902925 -179.72373502 159.3252697 -176.53515625 121.58129883 C-172.78758568 83.39470532 -153.36696283 49.33837331 -124 25 C-109.08793362 13.38617886 -92.20237035 4.97465862 -74 0 C-73.27925293 -0.20882813 -72.55850586 -0.41765625 -71.81591797 -0.6328125 C-49.45086438 -6.92189542 -22.25023186 -6.44674726 0 0 Z " fill="#FECF66" transform="translate(205,4)"/>
<path d="M0 0 C2.86525193 3.49349855 5.46875611 7.07454661 7.9765625 10.83203125 C8.34322525 11.38068344 8.709888 11.92933563 9.08766174 12.49461365 C10.26951485 14.26543425 11.44753363 16.03876005 12.625 17.8125 C13.03005768 18.42113892 13.43511536 19.02977783 13.85244751 19.65686035 C18.77399708 27.0542076 23.63257603 34.48167718 28.29443359 42.04614258 C32.02558655 48.08747575 35.8799212 54.04689855 39.75 60 C40.37672607 60.9684082 41.00345215 61.93681641 41.64916992 62.93457031 C44.4044601 67.1615234 47.18732937 71.31590356 50.25390625 75.32421875 C60.48480287 88.73457374 64.16597718 104.84111144 62.375 121.4375 C59.72515011 138.61765258 51.34662103 153.42084752 37.4375 163.9375 C21.82438424 174.46727574 3.3730012 177.83409745 -15.13671875 174.3515625 C-31.59370186 170.03920634 -45.37755372 159.64272207 -54 145 C-62.28806589 129.64336565 -64.49816436 113.00370251 -60.375 96.0625 C-57.38604044 86.24909782 -52.47385465 78.46476934 -46.3828125 70.3125 C-41.5069139 63.65478118 -37.18013461 56.59341482 -32.71435547 49.65820312 C-29.94743246 45.36793572 -27.16030876 41.09084399 -24.375 36.8125 C-21.23498115 31.98674216 -18.09892394 27.15865223 -14.984375 22.31640625 C-10.13011674 14.77332167 -5.24267772 7.2824909 0 0 Z " fill="#24C0FE" transform="translate(291,337)"/>
<path d="M0 0 C0.66 0 1.32 0 2 0 C3.42602539 1.88232422 3.42602539 1.88232422 5.09765625 4.5546875 C5.72607422 5.54952148 6.35449219 6.54435547 7.00195312 7.56933594 C7.68193359 8.66020508 8.36191406 9.75107422 9.0625 10.875 C10.50857238 13.17126148 11.95961484 15.4643723 13.41015625 17.7578125 C13.78467926 18.35150635 14.15920227 18.9452002 14.54507446 19.55688477 C19.28633812 27.06135169 24.17651529 34.46782068 29.06274414 41.87841797 C49.48683065 72.96212721 49.48683065 72.96212721 46.52734375 93.23828125 C43.87778711 105.47066552 37.81041878 115.44816759 27.58203125 122.71875 C15.9483043 130.07775867 4.71654639 132.1253067 -8.82421875 129.72265625 C-17.09794384 127.83995128 -23.58938772 124.52731289 -30 119 C-30.60714844 118.49855469 -31.21429688 117.99710937 -31.83984375 117.48046875 C-38.65931812 111.34741849 -44.30872644 101.12818672 -45.20288086 91.90795898 C-45.30465479 89.51842898 -45.32200552 87.14158955 -45.3125 84.75 C-45.32861328 83.95464844 -45.34472656 83.15929687 -45.36132812 82.33984375 C-45.36933861 72.42286779 -42.24177309 64.56091348 -36.9375 56.3125 C-36.45071777 55.53632324 -35.96393555 54.76014648 -35.46240234 53.96044922 C-31.63865141 47.89925208 -27.680789 41.92811223 -23.671875 35.98828125 C-20.51546431 31.30036477 -17.448122 26.5552501 -14.375 21.8125 C-13.2723055 20.11577486 -12.16944518 18.41915749 -11.06640625 16.72265625 C-9.19209567 13.83914602 -7.32499781 10.95124962 -5.46484375 8.05859375 C-4.75457031 6.96675781 -4.04429687 5.87492188 -3.3125 4.75 C-2.71050781 3.81671875 -2.10851562 2.8834375 -1.48828125 1.921875 C-0.99714844 1.28765625 -0.50601563 0.6534375 0 0 Z " fill="#24C0FE" transform="translate(380,249)"/>
<path d="M0 0 C0.33 0 0.66 0 1 0 C1.14695313 0.75023437 1.29390625 1.50046875 1.4453125 2.2734375 C4.95243261 18.2771925 14.64546944 30.04191708 28.36328125 38.8359375 C37.72043644 44.54007984 47.58836876 48.87399568 58.125 51.875 C58.79168701 52.06610352 59.45837402 52.25720703 60.14526367 52.45410156 C73.27232494 55.89962294 86.61045072 56.31746789 100.08984375 56.4140625 C101.77235302 56.4328282 103.45485341 56.45240535 105.13734436 56.4727478 C109.51173606 56.52350567 113.8861581 56.5634282 118.26068115 56.60089111 C122.74612579 56.64128947 127.23145048 56.69221597 131.71679688 56.7421875 C140.47778184 56.83827715 149.2388275 56.92289027 158 57 C158.4586998 55.82637657 158.4586998 55.82637657 158.92666626 54.62904358 C160.57966923 50.58014743 162.9922216 47.09004847 165.375 43.4375 C165.85710937 42.68275391 166.33921875 41.92800781 166.8359375 41.15039062 C167.3103125 40.41884766 167.7846875 39.68730469 168.2734375 38.93359375 C168.70060059 38.27415771 169.12776367 37.61472168 169.56787109 36.93530273 C171.19544109 34.73589132 173.02738876 32.89127458 175 31 C175.42708252 31.66829834 175.85416504 32.33659668 176.29418945 33.02514648 C177.93275205 35.58865798 179.57182061 38.15184527 181.21109009 40.71490479 C182.31138756 42.43576015 183.41095345 44.15708149 184.51049805 45.87841797 C187.78499805 51.00126615 191.06580944 56.1189654 194.40625 61.19921875 C194.90342529 61.95726807 195.40060059 62.71531738 195.9128418 63.49633789 C196.81587357 64.86970856 197.72327751 66.24021907 198.63598633 67.60717773 C204.04906266 75.8522395 206.92859448 83.82808948 205.6328125 93.8359375 C203.60840519 102.75832525 198.9729685 109.13882304 191.5625 114.4375 C183.76092341 119.19488032 175.12626018 120.42689742 166.19921875 118.34765625 C157.04785274 115.39846084 150.73656516 110.24861891 145.96484375 101.91015625 C143.53776212 97.1051242 142.91872757 93.3344265 143 88 C141.92576782 88.00999275 141.92576782 88.00999275 140.82983398 88.02018738 C134.00657927 88.08085849 127.18336602 88.12625436 120.35990906 88.15543652 C116.85375249 88.17094485 113.34782288 88.191903 109.84179688 88.22631836 C79.68937861 88.51422121 79.68937861 88.51422121 67 85 C66.17838379 84.77546143 65.35676758 84.55092285 64.51025391 84.31958008 C40.78253362 77.09940948 21.5076868 60.19681111 9.625 38.6875 C4.27136793 28.53035845 -0.23493384 15.74056748 -0.0625 4.1875 C-0.05347656 3.39730469 -0.04445312 2.60710937 -0.03515625 1.79296875 C-0.02355469 1.20128906 -0.01195312 0.60960937 0 0 Z " fill="#BDF2FF" transform="translate(0,323)"/>
<path d="M0 0 C0.33 0 0.66 0 1 0 C0.5259796 19.95194936 -8.02608313 38.15001776 -21 53 C-21.54011719 53.68320312 -22.08023438 54.36640625 -22.63671875 55.0703125 C-32.32184055 67.03014813 -46.58074775 75.41394196 -61 80.3125 C-61.7110791 80.55508545 -62.4221582 80.7976709 -63.15478516 81.04760742 C-80.61062945 86.63513667 -99.38787692 85.91918917 -117.51564693 86.20050621 C-122.75622014 86.28261765 -127.98936124 86.40386859 -133.22631836 86.61865234 C-167.09461742 87.97380351 -167.09461742 87.97380351 -175.11602783 83.11096191 C-179.68089514 78.62286318 -182.04014633 73.60691866 -184.01223755 67.58770752 C-185.41059518 63.92433629 -187.5392643 60.95557063 -189.83018494 57.79574585 C-191 56 -191 56 -191 54 C-174.83 54 -158.66 54 -142 54 C-142 53.34 -142 52.68 -142 52 C-141.10539062 52.08378906 -140.21078125 52.16757812 -139.2890625 52.25390625 C-132.03068075 52.86521985 -125.21262304 53.08023156 -118 52 C-118 52.33 -118 52.66 -118 53 C-80.41479742 53.57814266 -42.73371923 52.58181751 -13.82421875 24.91796875 C-6.99087763 17.77577605 -2.96754303 9.36024085 0 0 Z " fill="#BCF1FE" transform="translate(511,326)"/>
<path d="M0 0 C3.9427722 3.51181803 6.40184971 7.60358696 9.125 12.0625 C14.28919401 20.38715445 19.66592467 28.55505324 25.125 36.6875 C39.84147006 58.63346125 39.84147006 58.63346125 45.50390625 68.6640625 C46.91367918 71.0622459 46.91367918 71.0622459 48.96484375 72.90234375 C58.36091626 82.58697127 61.9841898 98.92496669 62 112 C60.94837807 129.80109126 54.48881528 145.59166122 41.4375 157.9375 C30.67260175 167.04626006 18.17942306 172.68742755 4 173 C4.70125 172.443125 5.4025 171.88625 6.125 171.3125 C7.07375 170.549375 8.0225 169.78625 9 169 C10.423125 168.01 10.423125 168.01 11.875 167 C22.5992634 157.90229583 27.10877283 140.65605973 28.72265625 127.20703125 C29.16578633 121.58508375 29.21158454 115.94924548 29.25 110.3125 C29.25942627 109.26723145 29.26885254 108.22196289 29.27856445 107.14501953 C29.18628733 85.07859837 20.32765188 63.53475055 13.5 42.8125 C12.85511666 40.84451638 12.21058471 38.87641758 11.56640625 36.90820312 C9.13140568 29.47744258 6.69475578 22.04756465 4.1953125 14.63818359 C3.91409546 13.80276535 3.63287842 12.96734711 3.34313965 12.10661316 C2.81535898 10.54165142 2.2849831 8.97756168 1.75158691 7.414505 C0 2.22101329 0 2.22101329 0 0 Z " fill="#28A6FA" transform="translate(292,339)"/>
<path d="M0 0 C4.21492243 5.14142788 7.86985889 10.61873215 11.55273438 16.14379883 C12.72805779 17.90462695 13.91064937 19.66040706 15.09375 21.41601562 C33.38647293 48.71203485 33.38647293 48.71203485 31.4375 62.625 C29.33289317 71.91703769 24.79901439 78.5332623 17 84 C9.39363018 88.2658404 0.65560306 89.3039307 -7.8125 87.3515625 C-16.94869489 84.38229916 -23.28951671 79.25133084 -28.03515625 70.89453125 C-31.73638943 63.62692763 -31.99685956 56.26070622 -30.125 48.375 C-27.80084926 41.47717646 -23.60312858 35.51833857 -19.63037109 29.48095703 C-17.77754297 26.66148423 -15.94505378 23.82928886 -14.11328125 20.99609375 C-11.48916523 16.9465281 -8.86244351 12.89874628 -6.22265625 8.859375 C-5.39906616 7.59818848 -5.39906616 7.59818848 -4.55883789 6.31152344 C-3.10281283 4.15245606 -1.5826972 2.06741495 0 0 Z " fill="#24C0FF" transform="translate(174,354)"/>
<path d="M0 0 C3.96006217 3.52620921 6.44584169 7.64994832 9.1875 12.125 C14.93374095 21.37188742 20.86702794 30.48697133 26.86010742 39.57470703 C47.48818667 70.95283681 47.48818667 70.95283681 44.52734375 91.23828125 C41.87778711 103.47066552 35.81041878 113.44816759 25.58203125 120.71875 C18.09073004 125.45743355 10.94489306 128.57095062 2 128 C2.721875 127.175 3.44375 126.35 4.1875 125.5 C6.90404312 121.69993541 8.35453326 117.6050131 9.75 113.1875 C9.96035889 112.53652344 10.17071777 111.88554687 10.38745117 111.21484375 C16.14519748 92.07416399 14.60870985 68.82515607 9.66357422 49.70947266 C8.24302668 43.90916485 7.12515947 38.03900399 5.9375 32.1875 C5.4479467 29.80571539 4.95709176 27.4241979 4.46484375 25.04296875 C4.22749512 23.89103027 3.99014648 22.7390918 3.74560547 21.55224609 C2.72235934 16.67725227 1.6415495 11.81514412 0.55297852 6.9543457 C0 4 0 4 0 0 Z " fill="#29A6FA" transform="translate(382,251)"/>
<path d="M0 0 C35.54064686 0.79460796 67.04237266 20.07722604 91.4609375 44.45703125 C107.74406854 61.68286988 121.64173238 86.17613737 124 110 C123.37996094 109.81824219 122.75992188 109.63648437 122.12109375 109.44921875 C112.21508359 106.63746914 102.16066287 104.64935722 92 103 C91.86013672 102.42781738 91.72027344 101.85563477 91.57617188 101.26611328 C85.49171453 76.76687949 75.96282663 55.64864058 60 36 C59.21689453 34.98486328 59.21689453 34.98486328 58.41796875 33.94921875 C54.04049186 28.46160363 48.53102205 24.26982746 43 20 C42.2059375 19.37867187 41.411875 18.75734375 40.59375 18.1171875 C28.6419738 9.23303386 14.511129 3.91594791 0 1 C0 0.67 0 0.34 0 0 Z " fill="#FEBC2B" transform="translate(180,0)"/>
<path d="M0 0 C23.43 0 46.86 0 71 0 C62.92077799 13.85009488 62.92077799 13.85009488 58.75 20 C58.32976562 20.62777344 57.90953125 21.25554687 57.4765625 21.90234375 C56.32902044 23.60922235 55.16521735 25.3051384 54 27 C53.63640381 27.71897461 53.27280762 28.43794922 52.89819336 29.17871094 C50.36902769 31.6054088 48.26784547 31.45453721 44.8664093 31.45318604 C44.05068954 31.43254089 43.23496979 31.41189575 42.39453125 31.390625 C41.55532639 31.38496521 40.71612152 31.37930542 39.85148621 31.37347412 C37.17124367 31.35108406 34.49233837 31.30088453 31.8125 31.25 C29.99546202 31.22993832 28.17840308 31.21168697 26.36132812 31.1953125 C21.90703688 31.15121086 17.45374515 31.08216659 13 31 C12.90130615 30.29222412 12.8026123 29.58444824 12.70092773 28.85522461 C11.72937245 22.68118111 10.39002206 17.84379648 7.0625 12.5625 C6.71509766 11.97791016 6.36769531 11.39332031 6.00976562 10.79101562 C4.53228263 8.33410887 2.99199932 5.98957595 1.24609375 3.71484375 C0 2 0 2 0 0 Z " fill="#BCF1FF" transform="translate(192,380)"/>
<path d="M0 0 C0.99 0.33 1.98 0.66 3 1 C5.51054905 1.1529647 7.99888525 1.25695178 10.51171875 1.31640625 C11.23994339 1.33718735 11.96816803 1.35796844 12.71846008 1.37937927 C15.04137875 1.44468746 17.36440906 1.50367237 19.6875 1.5625 C21.26368335 1.60570305 22.83985548 1.64931792 24.41601562 1.69335938 C28.27722975 1.8003496 32.13855603 1.90166961 36 2 C36 2.33 36 2.66 36 3 C23.46 3 10.92 3 -2 3 C-1.34 2.01 -0.68 1.02 0 0 Z " fill="#D2F5FE" transform="translate(394,377)"/>
</svg>
